<svg xmlns="http://www.w3.org/2000/svg" viewBox="0 0 18.76 32.21"><defs><style>.cls-1{fill:#453543;}</style></defs><title>Fitto-help</title><g id="Capa_2" data-name="Capa 2"><g id="Capa_1-2" data-name="Capa 1"><path class="cls-1" d="M5.41,22.14V13.08a7.33,7.33,0,0,0,1.8.18,6.14,6.14,0,0,0,4.34-1.57A4.55,4.55,0,0,0,12.76,8.6a3.68,3.68,0,0,0-1-2.68A3.22,3.22,0,0,0,9.38,5,3.26,3.26,0,0,0,7,5.82a3.94,3.94,0,0,0-1,3H0A9.68,9.68,0,0,1,2.31,2.59C3.56,1.29,5.73,0,9.61,0a9.11,9.11,0,0,1,6.75,2.36,8.49,8.49,0,0,1,2.4,6.38,7.94,7.94,0,0,1-2.35,6,9.25,9.25,0,0,1-5.27,2.59v4.85ZM8.27,25a3.61,3.61,0,1,1,0,7.21,3.61,3.61,0,0,1,0-7.21Z"/></g></g></svg>