<svg xmlns="http://www.w3.org/2000/svg" viewBox="0 0 22.61 35.16"><defs><style>.cls-1{fill:#453543;}</style></defs><title>Fitto-perfil</title><g id="Capa_2" data-name="Capa 2"><g id="Capa_1-2" data-name="Capa 1"><path class="cls-1" d="M10.24,35.16C5.12,34.74,1.52,33.23.4,30.32c-.87-2.23-.22-4.5,1-6.64a17.38,17.38,0,0,1,3.75-4.59c3.23-2.79,9.52-2.7,12.81.08a12.43,12.43,0,0,1,4.61,8.45c.24,2.15-.26,4.14-3.16,5.73a16.56,16.56,0,0,1-6.9,1.81Z"/><path class="cls-1" d="M11.25,0C6.51,0,3.73,3,3.74,8a7.14,7.14,0,0,0,7.57,7.55c4.6,0,7.58-3.13,7.57-7.93C18.87,3,15.85,0,11.25,0Z"/></g></g></svg>