<svg xmlns="http://www.w3.org/2000/svg" viewBox="0 0 39.28 27.21"><defs><style>.cls-1{fill:#453543;}</style></defs><title>Fitto-arrow-back</title><g id="Capa_2" data-name="Capa 2"><g id="Capa_1-2" data-name="Capa 1"><path class="cls-1" d="M0,13.53c0,.07,0,.15,0,.22a2,2,0,0,0,0,.26,1.84,1.84,0,0,0,.09.25,1.53,1.53,0,0,0,.14.21c.05.07.08.14.13.2l.06,0L12.54,26.77a1.5,1.5,0,1,0,2.12-2.12L5.11,15.1H37.78a1.5,1.5,0,0,0,0-3H5.12l9.54-9.54a1.51,1.51,0,0,0,0-2.12A1.53,1.53,0,0,0,13.6,0a1.49,1.49,0,0,0-1.06.44L.42,12.55l0,0A1.39,1.39,0,0,0,.11,13h0s0,.06,0,.1A1.69,1.69,0,0,0,0,13.53Z"/></g></g></svg>