<svg xmlns="http://www.w3.org/2000/svg" viewBox="0 0 50.57 71.76"><defs><style>.cls-1{fill:#453543;}</style></defs><title>Fitto-juega</title><g id="Capa_2" data-name="Capa 2"><g id="Capa_1-2" data-name="Capa 1"><path class="cls-1" d="M22.9,71.76C11.45,70.09,3.4,64.11.89,52.59-1,43.78.39,34.78,3.1,26.3A75.36,75.36,0,0,1,11.49,8.13c7.22-11.08,21.29-10.7,28.65.31,6.76,10.11,9.52,21.45,10.3,33.45.56,8.55-.56,16.43-7.06,22.72A25.89,25.89,0,0,1,28,71.76Zm-.25-32c-6.27,0-10,3.92-9.95,10.55,0,6,4,10,10,10s10-4.14,10-10.5C32.72,43.7,28.73,39.71,22.65,39.73Z"/></g></g></svg>